<svg xmlns="http://www.w3.org/2000/svg" width="23" height="25" viewBox="0 0 23 25" fill="none">
  <path
    d="M17.5701 6.20117C17.975 6.2014 18.3035 6.52961 18.3035 6.93457V19.4043C18.3034 19.8091 17.9749 20.1375 17.5701 20.1377H6.56718C6.16216 20.1377 5.83391 19.8093 5.83379 19.4043V6.93457C5.83379 6.52947 6.16208 6.20117 6.56718 6.20117H17.5701ZM7.30058 18.6709H16.8357V7.66797H7.30058V18.6709Z"
    fill="#4B5563" />
  <path
    d="M9.86806 15.3691V10.6016C9.86806 10.1965 10.1964 9.86816 10.6015 9.86816C11.0066 9.86816 11.3349 10.1965 11.3349 10.6016V15.3691C11.3349 15.7742 11.0066 16.1025 10.6015 16.1025C10.1964 16.1025 9.86806 15.7742 9.86806 15.3691Z"
    fill="#4B5563" />
  <path
    d="M12.802 15.3691V10.6016C12.802 10.1965 13.1303 9.86816 13.5354 9.86816C13.9405 9.86816 14.2688 10.1965 14.2688 10.6016V15.3691C14.2688 15.7742 13.9405 16.1025 13.5354 16.1025C13.1303 16.1025 12.802 15.7742 12.802 15.3691Z"
    fill="#4B5563" />
  <path
    d="M19.4033 6.20117C19.8084 6.20117 20.1367 6.52947 20.1367 6.93457C20.1367 7.33967 19.8084 7.66797 19.4033 7.66797H4.7334C4.3283 7.66797 4 7.33967 4 6.93457C4 6.52947 4.3283 6.20117 4.7334 6.20117H19.4033Z"
    fill="#4B5563" />
  <path
    d="M13.8199 4C14.09 4 14.3386 4.14877 14.4664 4.38672L15.649 6.58691C15.771 6.81418 15.7638 7.08917 15.6315 7.31055C15.499 7.53176 15.2604 7.66693 15.0026 7.66699H9.13439C8.87527 7.66699 8.6356 7.53055 8.50353 7.30762C8.37148 7.08463 8.36627 6.8083 8.49084 6.58105L9.69787 4.38086L9.7506 4.29688C9.88768 4.11154 10.1061 4.00006 10.3404 4H13.8199ZM10.3736 6.2002H13.776L13.3824 5.4668H10.775L10.3736 6.2002Z"
    fill="#4B5563" />
</svg>