<svg xmlns="http://www.w3.org/2000/svg" width="15" height="15" viewBox="0 0 15 15" fill="none">
  <g clip-path="url(#clip0_2469_3810)">
    <path
      d="M7.41522 1.52393C10.9016 1.40375 13.7277 4.16914 13.7277 7.59619C13.7277 9.06872 13.2063 10.4251 12.2805 11.4976L13.8781 13.0942L13.8869 13.104L13.9514 13.2036C14.0076 13.3034 14.0382 13.4061 14.0383 13.5083C14.0383 13.6466 13.9827 13.7739 13.8781 13.8784C13.7743 13.9822 13.6475 14.0385 13.5158 14.0386C13.3841 14.0386 13.2573 13.9821 13.1535 13.8784L11.5568 12.2808C10.4844 13.2067 9.12796 13.728 7.65546 13.728C4.16858 13.728 1.40342 10.8419 1.52362 7.35596L1.54218 7.06396C1.80636 4.0689 4.3291 1.64038 7.41522 1.52393ZM12.6525 7.65576C12.6525 4.75037 10.1531 2.42532 7.24823 2.65771H7.24725C4.80682 2.83212 2.77309 4.8092 2.59882 7.30713V7.30811C2.36677 10.2701 4.74746 12.7093 7.59393 12.7104C10.3861 12.6523 12.6524 10.385 12.6525 7.65576ZM10.4377 5.66748C10.726 5.66764 10.9454 5.88698 10.9455 6.17529V7.89209C10.9455 8.18054 10.7261 8.39974 10.4377 8.3999C10.1491 8.3999 9.92889 8.18065 9.92889 7.89209V7.40869L8.1955 9.14209C7.92976 9.40782 7.50901 9.42492 7.28827 9.13721L6.29022 8.13916L4.93671 9.38232L4.93573 9.38135C4.8325 9.48333 4.70781 9.53945 4.57733 9.53955C4.44563 9.53955 4.31884 9.4831 4.21503 9.37939C4.1112 9.27557 4.05393 9.14885 4.05389 9.01709C4.05389 8.88529 4.11117 8.75864 4.21503 8.65479L5.81268 7.05615C6.07664 6.79219 6.49313 6.7744 6.71503 7.05615L7.77362 8.11475L9.20428 6.68408H8.72089C8.43233 6.68408 8.2121 6.46385 8.2121 6.17529C8.21224 5.88687 8.43242 5.66748 8.72089 5.66748H10.4377Z"
      fill="#374151" stroke="#374151" stroke-width="0.1875" />
  </g>
  <defs>
    <clipPath id="clip0_2469_3810">
      <rect width="15" height="15" fill="white" />
    </clipPath>
  </defs>
</svg>